<svg width="22.000000" height="22.000000" viewBox="0 0 22 22" fill="none" xmlns="http://www.w3.org/2000/svg" xmlns:xlink="http://www.w3.org/1999/xlink">
	<desc>
			Created with Pixso.
	</desc>
	<defs>
		<clipPath id="clip3_175">
			<rect rx="0.000000" width="21.000000" height="21.000000" transform="translate(0.500000 0.500000)" fill="white" fill-opacity="0"/>
		</clipPath>
	</defs>
	<rect rx="0.000000" width="21.000000" height="21.000000" transform="translate(0.500000 0.500000)" fill="#000000" fill-opacity="0"/>
	<g clip-path="url(#clip3_175)">
		<path d="M20.56 4.23L17.66 17.93C17.44 18.9 16.87 19.14 16.06 18.68L11.63 15.42L9.5 17.47C9.26 17.71 9.06 17.91 8.61 17.91L8.92 13.4L17.13 5.99C17.48 5.67 17.05 5.5 16.57 5.81L6.43 12.2L2.07 10.83C1.12 10.54 1.1 9.88 2.26 9.43L19.34 2.85C20.13 2.55 20.82 3.02 20.56 4.23Z" fill="#FFFFFF" fill-opacity="1.000000" fill-rule="nonzero"/>
	</g>
</svg>
