<svg width="22.000000" height="22.000000" viewBox="0 0 22 22" fill="none" xmlns="http://www.w3.org/2000/svg" xmlns:xlink="http://www.w3.org/1999/xlink">
	<desc>
			Created with Pixso.
	</desc>
	<defs>
		<clipPath id="clip3_179">
			<rect rx="0.000000" width="21.000000" height="21.000000" transform="translate(0.500000 0.500000)" fill="white" fill-opacity="0"/>
		</clipPath>
	</defs>
	<rect rx="0.000000" width="21.000000" height="21.000000" transform="translate(0.500000 0.500000)" fill="#000000" fill-opacity="0"/>
	<g clip-path="url(#clip3_179)">
		<path d="M17.74 4.17C15.94 2.36 13.54 1.37 10.99 1.37C5.73 1.37 1.45 5.65 1.45 10.91C1.45 12.59 1.89 14.23 2.72 15.68L1.37 20.62L6.43 19.29C7.82 20.05 9.39 20.45 10.99 20.45L10.99 20.45C16.25 20.45 20.62 16.17 20.62 10.91C20.62 8.37 19.54 5.97 17.74 4.17ZM10.99 18.85C9.56 18.85 8.17 18.46 6.95 17.74L6.66 17.57L3.66 18.36L4.46 15.43L4.27 15.13C3.48 13.87 3.06 12.41 3.06 10.91C3.06 6.54 6.62 2.98 11 2.98C13.11 2.98 15.1 3.81 16.6 5.31C18.09 6.81 19.01 8.79 19.01 10.91C19.01 15.29 15.36 18.85 10.99 18.85ZM15.34 12.91C15.1 12.79 13.93 12.21 13.71 12.13C13.49 12.05 13.33 12.01 13.17 12.25C13.01 12.49 12.56 13.03 12.42 13.19C12.28 13.35 12.14 13.37 11.9 13.25C10.5 12.55 9.58 12 8.66 10.41C8.41 9.99 8.9 10.02 9.36 9.11C9.44 8.95 9.4 8.82 9.34 8.7C9.28 8.58 8.8 7.4 8.6 6.93C8.41 6.46 8.21 6.53 8.06 6.52C7.93 6.51 7.77 6.51 7.61 6.51C7.45 6.51 7.19 6.57 6.97 6.81C6.75 7.05 6.14 7.62 6.14 8.79C6.14 9.97 6.99 11.1 7.11 11.26C7.23 11.42 8.79 13.83 11.18 14.86C12.7 15.52 13.29 15.57 14.05 15.46C14.51 15.39 15.46 14.88 15.65 14.33C15.85 13.77 15.85 13.29 15.79 13.19C15.73 13.08 15.58 13.02 15.34 12.91Z" fill="#FFFFFF" fill-opacity="1.000000" fill-rule="nonzero"/>
	</g>
</svg>
